<svg width="14" height="8" viewBox="0 0 14 8" fill="none" xmlns="http://www.w3.org/2000/svg">
<path d="M6.61555 7.53825C6.73649 7.5383 6.85625 7.51447 6.96796 7.46814C7.07968 7.42181 7.18114 7.35388 7.26655 7.26826L12.9236 1.61125C13.0787 1.43557 13.1611 1.20733 13.1539 0.973028C13.1466 0.738731 13.0503 0.516016 12.8845 0.350263C12.7188 0.184511 12.4961 0.0881941 12.2618 0.0809458C12.0275 0.0736976 11.7992 0.156065 11.6236 0.311254L6.61755 5.31725L1.61155 0.311254C1.5283 0.217015 1.42664 0.140817 1.31283 0.0873622C1.19901 0.0339072 1.07546 0.0043286 0.949775 0.000440475C0.824092 -0.00344765 0.698945 0.0184387 0.582044 0.0647563C0.465142 0.111074 0.358964 0.180837 0.270051 0.26975C0.181138 0.358664 0.111372 0.464846 0.0650549 0.581747C0.0187378 0.698648 -0.00315189 0.823794 0.000736237 0.949476C0.00462437 1.07516 0.0342073 1.19871 0.0876627 1.31253C0.141118 1.42634 0.217312 1.528 0.311551 1.61125L5.96855 7.26826C6.14007 7.44021 6.37268 7.53728 6.61555 7.53825Z" fill="black" fill-opacity="0.5"/>
</svg>
