<svg width="25" height="27" viewBox="0 0 25 27" fill="none" xmlns="http://www.w3.org/2000/svg">
<path d="M10.5769 3.84615H14.4231C14.4231 3.33612 14.2205 2.84698 13.8598 2.48633C13.4992 2.12569 13.01 1.92308 12.5 1.92308C11.99 1.92308 11.5008 2.12569 11.1402 2.48633C10.7795 2.84698 10.5769 3.33612 10.5769 3.84615ZM8.65385 3.84615C8.65385 2.82609 9.05906 1.84781 9.78036 1.12651C10.5017 0.405219 11.4799 0 12.5 0C13.5201 0 14.4983 0.405219 15.2196 1.12651C15.9409 1.84781 16.3462 2.82609 16.3462 3.84615H24.0385C24.2935 3.84615 24.538 3.94746 24.7184 4.12778C24.8987 4.30811 25 4.55268 25 4.80769C25 5.06271 24.8987 5.30728 24.7184 5.4876C24.538 5.66793 24.2935 5.76923 24.0385 5.76923H22.9538L20.6365 22.7654C20.4794 23.9172 19.9102 24.973 19.0344 25.7374C18.1586 26.5018 17.0355 26.9231 15.8731 26.9231H9.12692C7.96446 26.9231 6.84136 26.5018 5.96558 25.7374C5.08979 24.973 4.52063 23.9172 4.36346 22.7654L2.04615 5.76923H0.961538C0.706523 5.76923 0.461951 5.66793 0.281628 5.4876C0.101305 5.30728 0 5.06271 0 4.80769C0 4.55268 0.101305 4.30811 0.281628 4.12778C0.461951 3.94746 0.706523 3.84615 0.961538 3.84615H8.65385ZM10.5769 10.5769C10.5769 10.3219 10.4756 10.0773 10.2953 9.89701C10.115 9.71669 9.8704 9.61538 9.61538 9.61538C9.36037 9.61538 9.1158 9.71669 8.93547 9.89701C8.75515 10.0773 8.65385 10.3219 8.65385 10.5769V20.1923C8.65385 20.4473 8.75515 20.6919 8.93547 20.8722C9.1158 21.0525 9.36037 21.1538 9.61538 21.1538C9.8704 21.1538 10.115 21.0525 10.2953 20.8722C10.4756 20.6919 10.5769 20.4473 10.5769 20.1923V10.5769ZM15.3846 9.61538C15.6396 9.61538 15.8842 9.71669 16.0645 9.89701C16.2449 10.0773 16.3462 10.3219 16.3462 10.5769V20.1923C16.3462 20.4473 16.2449 20.6919 16.0645 20.8722C15.8842 21.0525 15.6396 21.1538 15.3846 21.1538C15.1296 21.1538 14.885 21.0525 14.7047 20.8722C14.5244 20.6919 14.4231 20.4473 14.4231 20.1923V10.5769C14.4231 10.3219 14.5244 10.0773 14.7047 9.89701C14.885 9.71669 15.1296 9.61538 15.3846 9.61538ZM6.26923 22.5058C6.36361 23.1967 6.70509 23.8301 7.23047 24.2886C7.75585 24.7472 8.42957 24.9999 9.12692 25H15.8731C16.5708 25.0004 17.2449 24.7479 17.7707 24.2893C18.2965 23.8307 18.6383 23.197 18.7327 22.5058L21.0135 5.76923H3.98654L6.26923 22.5058Z" fill="black"/>
</svg>
