<svg width="33" height="39" viewBox="0 0 33 39" fill="none" xmlns="http://www.w3.org/2000/svg">
<g filter="url(#filter0_d_10_5465)">
<path d="M16.854 0C13.6968 0.00375843 10.67 1.271 8.43745 3.52373C6.20494 5.77646 4.94908 8.83075 4.94536 12.0166C4.94158 14.6201 5.78436 17.1529 7.34442 19.2265C7.34442 19.2265 7.6692 19.658 7.72225 19.7203L16.854 30.5877L25.9902 19.7149C26.0378 19.657 26.3637 19.2265 26.3637 19.2265L26.3648 19.2233C27.924 17.1505 28.7664 14.6189 28.7627 12.0166C28.759 8.83075 27.5031 5.77646 25.2706 3.52373C23.0381 1.271 20.0113 0.00375843 16.854 0Z" fill="black"/>
</g>
<path d="M17.3641 5.44203C17.2999 5.37282 17.2216 5.31752 17.1342 5.27968C17.0469 5.24184 16.9524 5.22229 16.8569 5.22229C16.7614 5.22229 16.6669 5.24184 16.5796 5.27968C16.4922 5.31752 16.4139 5.37282 16.3497 5.44203L10.1809 12.1539C10.09 12.25 10.0297 12.37 10.0075 12.4991C9.98536 12.6283 10.0023 12.761 10.0562 12.8809C10.1101 13.0008 10.1987 13.1026 10.311 13.1738C10.4233 13.245 10.5544 13.2824 10.6881 13.2815H12.059V17.9798C12.059 18.1579 12.1312 18.3286 12.2597 18.4544C12.3883 18.5803 12.5626 18.651 12.7444 18.651H20.9694C21.1512 18.651 21.3255 18.5803 21.4541 18.4544C21.5826 18.3286 21.6548 18.1579 21.6548 17.9798V13.2815H23.0257C23.2074 13.2815 23.3818 13.2108 23.5103 13.0849C23.6389 12.9591 23.7111 12.7883 23.7111 12.6103C23.7123 12.4417 23.6487 12.2787 23.5329 12.1539L17.3641 5.44203Z" fill="#FDB813"/>
<path d="M17.3641 5.44203C17.2999 5.37282 17.2216 5.31752 17.1342 5.27968C17.0469 5.24184 16.9524 5.22229 16.8569 5.22229C16.7614 5.22229 16.6669 5.24184 16.5796 5.27968C16.4922 5.31752 16.4139 5.37282 16.3497 5.44203L10.1809 12.1539C10.09 12.25 10.0297 12.37 10.0075 12.4991C9.98536 12.6283 10.0023 12.761 10.0562 12.8809C10.1101 13.0008 10.1987 13.1026 10.311 13.1738C10.4233 13.245 10.5544 13.2824 10.6881 13.2815H12.059V17.9798C12.059 18.1579 12.1312 18.3286 12.2597 18.4544C12.3883 18.5803 12.5626 18.651 12.7444 18.651H20.9694C21.1512 18.651 21.3255 18.5803 21.4541 18.4544C21.5826 18.3286 21.6548 18.1579 21.6548 17.9798V13.2815H23.0257C23.2074 13.2815 23.3818 13.2108 23.5103 13.0849C23.6389 12.9591 23.7111 12.7883 23.7111 12.6103C23.7123 12.4417 23.6487 12.2787 23.5329 12.1539L17.3641 5.44203Z" fill="#FDB813"/>
<defs>
<filter id="filter0_d_10_5465" x="0.945312" y="0" width="31.8184" height="38.5877" filterUnits="userSpaceOnUse" color-interpolation-filters="sRGB">
<feFlood flood-opacity="0" result="BackgroundImageFix"/>
<feColorMatrix in="SourceAlpha" type="matrix" values="0 0 0 0 0 0 0 0 0 0 0 0 0 0 0 0 0 0 127 0" result="hardAlpha"/>
<feOffset dy="4"/>
<feGaussianBlur stdDeviation="2"/>
<feComposite in2="hardAlpha" operator="out"/>
<feColorMatrix type="matrix" values="0 0 0 0 0 0 0 0 0 0 0 0 0 0 0 0 0 0 0.47 0"/>
<feBlend mode="normal" in2="BackgroundImageFix" result="effect1_dropShadow_10_5465"/>
<feBlend mode="normal" in="SourceGraphic" in2="effect1_dropShadow_10_5465" result="shape"/>
</filter>
</defs>
</svg>
