<svg width="232" height="184" viewBox="0 0 232 184" fill="none" xmlns="http://www.w3.org/2000/svg">
<path d="M96.6667 0V21.8863L116 34.7663V19.3684H212.667V164.632H164.333V184H232V0H96.6667ZM72.5 29.0526L0 77.4737V184H145V77.4737L72.5 29.0526ZM135.333 38.7368V47.7432L150.897 58.1053H154.667V38.7368H135.333ZM174 38.7368V58.1053H193.333V38.7368H174ZM72.5 53.2632L125.667 87.1579V164.632H96.6667V106.526H48.3333V164.632H19.3333V87.1579L72.5 53.2632ZM174 77.4737V96.8421H193.333V77.4737H174ZM174 116.211V135.579H193.333V116.211H174Z" fill="#868686"/>
</svg>
