<svg width="1441" height="313" viewBox="0 0 1441 313" fill="none" xmlns="http://www.w3.org/2000/svg">
<path d="M517.548 123.815V97.4034H569.709C591.458 97.4034 600.689 73.8528 602.586 62.0775V8.92358H628.192V62.0775C628.192 84.5276 648.635 94.9823 658.856 97.4034H713.23V123.815H661.385C638.118 123.815 629.562 146.706 628.192 158.151V212.955H602.586V156.17C602.586 138.342 583.618 123.815 569.709 123.815H517.548Z" stroke="#FDB813" stroke-opacity="0.3" strokeWidth="2"/>
<path d="M688.255 62.9077V48.676H716.316C728.016 48.676 732.982 35.9861 734.003 29.6412V1H747.778V29.6412C747.778 41.7381 758.775 47.3715 764.274 48.676H793.525V62.9077H765.634C753.118 62.9077 748.515 75.2418 747.778 81.4088V110.939H734.003V80.3414C734.003 70.7351 723.799 62.9077 716.316 62.9077H688.255Z" stroke="#FDB813" stroke-opacity="0.3" strokeWidth="2"/>
<path d="M824.189 247.791V233.559H852.25C863.95 233.559 868.916 220.869 869.936 214.524V185.883H883.711V214.524C883.711 226.621 894.709 232.255 900.208 233.559H929.459V247.791H901.568C889.051 247.791 884.448 260.125 883.711 266.292V295.823H869.936V265.225C869.936 255.618 859.732 247.791 852.25 247.791H824.189Z" stroke="#FDB813" stroke-opacity="0.3" strokeWidth="2"/>
<path d="M1305.96 199.999V181.879H1341.69C1356.59 181.879 1362.91 165.721 1364.21 157.642V121.174H1381.75V157.642C1381.75 173.045 1395.75 180.218 1402.76 181.879H1440V199.999H1404.49C1388.55 199.999 1382.69 215.704 1381.75 223.556V261.157H1364.21V222.197C1364.21 209.966 1351.22 199.999 1341.69 199.999H1305.96Z" stroke="#FDB813" stroke-opacity="0.3" strokeWidth="2"/>
<path d="M1192.16 101.557V95.7451H1203.62C1208.4 95.7451 1210.43 90.5624 1210.84 87.9711V76.2738H1216.47V87.9711C1216.47 92.9116 1220.96 95.2123 1223.2 95.7451H1235.15V101.557H1223.76C1218.65 101.557 1216.77 106.595 1216.47 109.113V121.174H1210.84V108.678C1210.84 104.754 1206.67 101.557 1203.62 101.557H1192.16Z" stroke="#FDB813" stroke-opacity="0.3" strokeWidth="2"/>
<path d="M1065.71 157.683V151.87H1077.17C1081.95 151.87 1083.98 146.688 1084.39 144.096V132.399H1090.02V144.096C1090.02 149.037 1094.51 151.338 1096.75 151.87H1108.7V157.683H1097.31C1092.2 157.683 1090.32 162.72 1090.02 165.239V177.299H1084.39V164.803C1084.39 160.88 1080.22 157.683 1077.17 157.683H1065.71Z" stroke="#FDB813" stroke-opacity="0.3" strokeWidth="2"/>
<path d="M963.916 216.449V210.637H975.376C980.155 210.637 982.183 205.454 982.6 202.863V191.166H988.225V202.863C988.225 207.803 992.717 210.104 994.963 210.637H1006.91V216.449H995.518C990.406 216.449 988.526 221.487 988.225 224.005V236.066H982.6V223.569C982.6 219.646 978.432 216.449 975.376 216.449H963.916Z" stroke="#FDB813" stroke-opacity="0.3" strokeWidth="2"/>
<path d="M750.532 292.383V286.571H761.992C766.77 286.571 768.799 281.388 769.215 278.797V267.1H774.841V278.797C774.841 283.738 779.333 286.038 781.578 286.571H793.525V292.383H782.134C777.022 292.383 775.142 297.421 774.841 299.939V312H769.215V299.504C769.215 295.58 765.048 292.383 761.992 292.383H750.532Z" stroke="#FDB813" stroke-opacity="0.3" strokeWidth="2"/>
<path d="M757.17 108.821V103.009H768.631C773.409 103.009 775.437 97.8259 775.854 95.2345V83.5372H781.48V95.2345C781.48 100.175 785.971 102.476 788.217 103.009H800.163V108.821H788.773C783.661 108.821 781.781 113.858 781.48 116.377V128.437H775.854V115.941C775.854 112.018 771.687 108.821 768.631 108.821H757.17Z" stroke="#FDB813" stroke-opacity="0.3" strokeWidth="2"/>
<path d="M797.318 85.3803V79.568H808.779C813.557 79.568 815.585 74.3853 816.002 71.794V60.0967H821.628V71.794C821.628 76.7345 826.119 79.0352 828.365 79.568H840.311V85.3803H828.921C823.809 85.3803 821.929 90.4176 821.628 92.9363V104.997H816.002V92.5004C816.002 88.5771 811.835 85.3803 808.779 85.3803H797.318Z" stroke="#FDB813" stroke-opacity="0.3" strokeWidth="2"/>
<path d="M764.125 238.239V232.427H775.585C780.364 232.427 782.392 227.244 782.809 224.653V212.955H788.435V224.653C788.435 229.593 792.926 231.894 795.172 232.427H807.118V238.239H795.728C790.616 238.239 788.736 243.276 788.435 245.795V257.856H782.809V245.359C782.809 241.436 778.641 238.239 775.585 238.239H764.125Z" stroke="#FDB813" stroke-opacity="0.3" strokeWidth="2"/>
<path d="M783.725 274.555V268.743H795.185C799.964 268.743 801.992 263.56 802.408 260.969V249.272H808.034V260.969C808.034 265.91 812.526 268.21 814.771 268.743H826.718V274.555H815.327C810.215 274.555 808.335 279.593 808.034 282.111V294.172H802.408V281.675C802.408 277.752 798.241 274.555 795.185 274.555H783.725Z" stroke="#FDB813" stroke-opacity="0.3" strokeWidth="2"/>
<path d="M893.104 198.951V193.139H904.564C909.343 193.139 911.371 187.956 911.788 185.365V173.668H917.414V185.365C917.414 190.306 921.905 192.606 924.151 193.139H936.097V198.951H924.707C919.595 198.951 917.715 203.989 917.414 206.507V218.568H911.788V206.071C911.788 202.148 907.62 198.951 904.564 198.951H893.104Z" stroke="#FDB813" stroke-opacity="0.3" strokeWidth="2"/>
<path d="M998.689 176.501V170.689H1010.15C1014.93 170.689 1016.96 165.506 1017.37 162.915V151.218H1023V162.915C1023 167.855 1027.49 170.156 1029.74 170.689H1041.68V176.501H1030.29C1025.18 176.501 1023.3 181.539 1023 184.057V196.118H1017.37V183.621C1017.37 179.698 1013.21 176.501 1010.15 176.501H998.689Z" stroke="#FDB813" stroke-opacity="0.3" strokeWidth="2"/>
<path d="M1111.86 124.007V118.195H1123.32C1128.1 118.195 1130.13 113.013 1130.55 110.421V98.7239H1136.17V110.421C1136.17 115.362 1140.66 117.662 1142.91 118.195H1154.86V124.007H1143.47C1138.35 124.007 1136.47 129.045 1136.17 131.564V143.624H1130.55V131.128C1130.55 127.204 1126.38 124.007 1123.32 124.007H1111.86Z" stroke="#FDB813" stroke-opacity="0.3" strokeWidth="2"/>
<path d="M1300.59 102.548V96.7357H1312.05C1316.83 96.7357 1318.86 91.553 1319.27 88.9617V77.2644H1324.9V88.9617C1324.9 93.9022 1329.39 96.2029 1331.64 96.7357H1343.58V102.548H1332.19C1327.08 102.548 1325.2 107.585 1324.9 110.104V122.165H1319.27V109.668C1319.27 105.745 1315.11 102.548 1312.05 102.548H1300.59Z" stroke="#FDB813" stroke-opacity="0.3" strokeWidth="2"/>
<path d="M1300.59 254.086V248.274H1312.05C1316.83 248.274 1318.86 243.091 1319.27 240.5V228.802H1324.9V240.5C1324.9 245.44 1329.39 247.741 1331.64 248.274H1343.58V254.086H1332.19C1327.08 254.086 1325.2 259.123 1324.9 261.642V273.703H1319.27V261.206C1319.27 257.283 1315.11 254.086 1312.05 254.086H1300.59Z" stroke="#FDB813" stroke-opacity="0.3" strokeWidth="2"/>
<path d="M478.349 208.032V201.878H489.809C494.587 201.878 496.615 196.39 497.032 193.646V181.261H502.658V193.646C502.658 198.878 507.15 201.314 509.395 201.878H521.342V208.032H509.951C504.839 208.032 502.959 213.366 502.658 216.032V228.803H497.032V215.571C497.032 211.417 492.865 208.032 489.809 208.032H478.349Z" stroke="#FDB813" stroke-opacity="0.3" strokeWidth="2"/>
<path d="M117.65 89.1785V83.0243H129.11C133.889 83.0243 135.917 77.5367 136.334 74.793V62.4076H141.96V74.793C141.96 80.0241 146.451 82.4601 148.697 83.0243H160.643V89.1785H149.252C144.14 89.1785 142.261 94.5121 141.96 97.179V109.949H136.334V96.7174C136.334 92.5633 132.166 89.1785 129.11 89.1785H117.65Z" stroke="#FDB813" stroke-opacity="0.3" strokeWidth="2"/>
<path d="M69.283 112.949V106.795H80.7431C85.5217 106.795 87.5498 101.307 87.9665 98.5637V86.1783H93.5924V98.5637C93.5924 103.795 98.0839 106.231 100.33 106.795H112.276V112.949H100.885C95.7733 112.949 93.8934 118.283 93.5924 120.95V133.72H87.9665V120.488C87.9665 116.334 83.7992 112.949 80.7431 112.949H69.283Z" stroke="#FDB813" stroke-opacity="0.3" strokeWidth="2"/>
<path d="M242.836 154.548V148.394H254.296C259.074 148.394 261.102 142.906 261.519 140.162V127.777H267.145V140.162C267.145 145.393 271.637 147.829 273.882 148.394H285.829V154.548H274.438C269.326 154.548 267.446 159.882 267.145 162.548V175.318H261.519V162.087C261.519 157.933 257.352 154.548 254.296 154.548H242.836Z" stroke="#FDB813" stroke-opacity="0.3" strokeWidth="2"/>
<path d="M285.828 187.563V181.409H297.289C302.067 181.409 304.095 175.921 304.512 173.177V160.792H310.138V173.177C310.138 178.408 314.629 180.845 316.875 181.409H328.821V187.563H317.431C312.319 187.563 310.439 192.897 310.138 195.563V208.333H304.512V195.102C304.512 190.948 300.345 187.563 297.289 187.563H285.828Z" stroke="#FDB813" stroke-opacity="0.3" strokeWidth="2"/>
<path d="M175.817 134.303V128.704H186.266C190.623 128.704 192.472 123.712 192.852 121.216V109.949H197.981V121.216C197.981 125.975 202.077 128.191 204.124 128.704H215.016V134.303H204.631C199.97 134.303 198.256 139.155 197.981 141.581V153.198H192.852V141.161C192.852 137.382 189.052 134.303 186.266 134.303H175.817Z" stroke="#FDB813" stroke-opacity="0.3" strokeWidth="2"/>
<path d="M460.646 253.157V247.558H471.094C475.451 247.558 477.301 242.566 477.68 240.07V228.802H482.81V240.07C482.81 244.829 486.905 247.045 488.953 247.558H499.845V253.157H489.459C484.798 253.157 483.084 258.009 482.81 260.435V272.052H477.68V260.015C477.68 256.236 473.881 253.157 471.094 253.157H460.646Z" stroke="#FDB813" stroke-opacity="0.3" strokeWidth="2"/>
<path d="M513.754 275.937V270.338H524.203C528.56 270.338 530.409 265.346 530.789 262.85V251.583H535.919V262.85C535.919 267.609 540.014 269.825 542.062 270.338H552.954V275.937H542.568C537.907 275.937 536.193 280.789 535.919 283.215V294.832H530.789V282.795C530.789 279.016 526.99 275.937 524.203 275.937H513.754Z" stroke="#FDB813" stroke-opacity="0.3" strokeWidth="2"/>
<path d="M328.821 146.038V137.362H345C351.746 137.362 354.609 129.626 355.198 125.758V108.298H363.14V125.758C363.14 133.133 369.481 136.567 372.652 137.362H389.517V146.038H373.436C366.219 146.038 363.565 153.557 363.14 157.316V175.318H355.198V156.666C355.198 150.809 349.315 146.038 345 146.038H328.821Z" stroke="#FDB813" stroke-opacity="0.3" strokeWidth="2"/>
<path d="M90.7791 158.584V149.908H106.958C113.704 149.908 116.567 142.172 117.156 138.304V120.844H125.098V138.304C125.098 145.678 131.439 149.112 134.61 149.908H151.475V158.584H135.394C128.177 158.584 125.523 166.102 125.098 169.862V187.864H117.156V169.211C117.156 163.355 111.273 158.584 106.958 158.584H90.7791Z" stroke="#FDB813" stroke-opacity="0.3" strokeWidth="2"/>
<path d="M642.417 177.524V169.275H658.596C665.342 169.275 668.205 161.921 668.794 158.243V141.643H676.736V158.243C676.736 165.254 683.077 168.519 686.248 169.275H703.113V177.524H687.032C679.815 177.524 677.161 184.672 676.736 188.247V205.362H668.794V187.628C668.794 182.06 662.91 177.524 658.596 177.524H642.417Z" stroke="#FDB813" stroke-opacity="0.3" strokeWidth="2"/>
<path d="M779.615 159.035V150.787H795.794C802.54 150.787 805.404 143.432 805.992 139.755V123.155H813.934V139.755C813.934 146.766 820.275 150.031 823.446 150.787H840.311V159.035H824.23C817.013 159.035 814.359 166.184 813.934 169.758V186.874H805.992V169.14C805.992 163.572 800.109 159.035 795.794 159.035H779.615Z" stroke="#FDB813" stroke-opacity="0.3" strokeWidth="2"/>
<path d="M1152.96 168.28V160.031H1169.14C1175.88 160.031 1178.75 152.676 1179.34 148.999V132.399H1187.28V148.999C1187.28 156.01 1193.62 159.275 1196.79 160.031H1213.65V168.28H1197.57C1190.36 168.28 1187.7 175.428 1187.28 179.002V196.118H1179.34V178.384C1179.34 172.816 1173.45 168.28 1169.14 168.28H1152.96Z" stroke="#FDB813" stroke-opacity="0.3" strokeWidth="2"/>
<path d="M903.22 159.154V152.017H917.208C923.041 152.017 925.516 145.653 926.025 142.471V128.107H932.892V142.471C932.892 148.537 938.374 151.363 941.115 152.017H955.697V159.154H941.794C935.554 159.154 933.259 165.34 932.892 168.432V183.242H926.025V167.897C926.025 163.079 920.939 159.154 917.208 159.154H903.22Z" stroke="#FDB813" stroke-opacity="0.3" strokeWidth="2"/>
<path d="M521.341 243.169V228.937H549.402C561.102 228.937 566.068 216.247 567.088 209.902V181.261H580.864V209.902C580.864 221.999 591.861 227.633 597.36 228.937H626.611V243.169H598.72C586.204 243.169 581.601 255.503 580.864 261.67V291.201H567.088V260.603C567.088 250.996 556.885 243.169 549.402 243.169H521.341Z" stroke="#FDB813" stroke-opacity="0.3" strokeWidth="2"/>
<path d="M341.782 227.322V213.09H369.843C381.543 213.09 386.509 200.4 387.53 194.055V165.414H401.305V194.055C401.305 206.152 412.302 211.786 417.801 213.09H447.052V227.322H419.162C406.645 227.322 402.042 239.656 401.305 245.823V275.354H387.53V244.756C387.53 235.149 377.326 227.322 369.843 227.322H341.782Z" stroke="#FDB813" stroke-opacity="0.3" strokeWidth="2"/>
<path d="M1 72.812V58.5803H29.0605C40.7609 58.5803 45.7268 45.8904 46.7472 39.5455V10.9043H60.5224V39.5455C60.5224 51.6424 71.5198 57.2758 77.0186 58.5803H106.27V72.812H78.3791C65.8624 72.812 61.2593 85.1461 60.5224 91.3131V120.844H46.7472V90.2457C46.7472 80.6394 36.5434 72.812 29.0605 72.812H1Z" stroke="#FDB813" stroke-opacity="0.3" strokeWidth="2"/>
<path d="M817.234 208.196V202.383H828.694C833.473 202.383 835.501 197.201 835.917 194.609V182.912H841.543V194.609C841.543 199.55 846.035 201.85 848.281 202.383H860.227V208.196H848.836C843.724 208.196 841.844 213.233 841.543 215.752V227.812H835.917V215.316C835.917 211.392 831.75 208.196 828.694 208.196H817.234Z" fill="#FDB813" fill-opacity="0.3"/>
<path d="M703.113 154.051V148.239H714.573C719.351 148.239 721.38 143.056 721.796 140.465V128.768H727.422V140.465C727.422 145.405 731.914 147.706 734.159 148.239H746.106V154.051H734.715C729.603 154.051 727.723 159.089 727.422 161.607V173.668H721.796V161.171C721.796 157.248 717.629 154.051 714.573 154.051H703.113Z" fill="#FDB813" fill-opacity="0.3"/>
<path d="M198.262 188.473V181.806H211.408C216.889 181.806 219.215 175.861 219.693 172.889V159.471H226.147V172.889C226.147 178.556 231.299 181.195 233.875 181.806H247.578V188.473H234.512C228.648 188.473 226.492 194.251 226.147 197.14V210.974H219.693V196.64C219.693 192.14 214.913 188.473 211.408 188.473H198.262Z" fill="#FDB813" fill-opacity="0.3"/>
<path d="M625.979 275.87V271.425H634.743C638.397 271.425 639.948 267.462 640.267 265.48V256.535H644.569V265.48C644.569 269.258 648.003 271.018 649.721 271.425H658.856V275.87H650.146C646.237 275.87 644.799 279.722 644.569 281.648V290.871H640.267V281.314C640.267 278.314 637.08 275.87 634.743 275.87H625.979Z" fill="#FDB813" fill-opacity="0.3"/>
<path d="M227.029 105.843V101.398H235.793C239.447 101.398 240.998 97.4351 241.317 95.4535V86.5085H245.619V95.4535C245.619 99.2316 249.054 100.991 250.771 101.398H259.906V105.843H251.196C247.287 105.843 245.849 109.695 245.619 111.621V120.844H241.317V111.288C241.317 108.288 238.13 105.843 235.793 105.843H227.029Z" fill="#FDB813" fill-opacity="0.3"/>
<path d="M435.355 188.653V183.31H445.889C450.281 183.31 452.145 178.547 452.528 176.165V165.414H457.699V176.165C457.699 180.706 461.827 182.821 463.891 183.31H474.871V188.653H464.402C459.703 188.653 457.975 193.283 457.699 195.598V206.683H452.528V195.197C452.528 191.591 448.698 188.653 445.889 188.653H435.355Z" fill="#FDB813" fill-opacity="0.3"/>
<path d="M1049.9 204.189V199.146H1059.84C1063.99 199.146 1065.75 194.649 1066.11 192.401V182.252H1070.99V192.401C1070.99 196.687 1074.89 198.684 1076.84 199.146H1087.2V204.189H1077.32C1072.89 204.189 1071.25 208.56 1070.99 210.745V221.209H1066.11V210.367C1066.11 206.963 1062.5 204.189 1059.84 204.189H1049.9Z" fill="#FDB813" fill-opacity="0.3"/>
<path d="M1259.81 123.633V118.59H1269.75C1273.9 118.59 1275.66 114.093 1276.02 111.844V101.695H1280.9V111.844C1280.9 116.131 1284.8 118.127 1286.75 118.59H1297.11V123.633H1287.23C1282.79 123.633 1281.16 128.003 1280.9 130.189V140.653H1276.02V129.81C1276.02 126.406 1272.4 123.633 1269.75 123.633H1259.81Z" fill="#FDB813" fill-opacity="0.3"/>
<path d="M1019.87 124.985V117.506H1034.62C1040.77 117.506 1043.37 110.837 1043.91 107.503V92.4513H1051.15V107.503C1051.15 113.86 1056.93 116.821 1059.82 117.506H1075.19V124.985H1060.53C1053.96 124.985 1051.54 131.467 1051.15 134.708V150.227H1043.91V134.147C1043.91 129.099 1038.55 124.985 1034.62 124.985H1019.87Z" fill="#FDB813" fill-opacity="0.3"/>
</svg>
