<svg width="268" height="58" viewBox="0 0 268 58" fill="none" xmlns="http://www.w3.org/2000/svg">
<path d="M2.13526 57.5103H0.916992V48.8843H2.13379V51.1375C2.38628 50.4225 2.84223 49.8077 3.43897 49.3775C4.03571 48.9474 4.74395 48.7229 5.46636 48.7351V50.1197H5.3722C4.90371 50.1234 4.44136 50.2326 4.01604 50.4402C3.59073 50.6477 3.21224 50.9486 2.90585 51.323C2.59947 51.6973 2.37224 52.1364 2.23935 52.6109C2.10647 53.0854 2.07098 53.5843 2.13526 54.0745V57.5103Z" fill="#1A1818"/>
<path d="M11.58 56.5935C12.0669 56.598 12.549 56.4915 12.9934 56.2813C13.4377 56.071 13.8339 55.762 14.1548 55.3752L14.9126 56.0931C14.5051 56.6153 13.9902 57.0324 13.4071 57.3127C12.824 57.593 12.188 57.7292 11.5476 57.7108C10.456 57.6678 9.42135 57.185 8.65621 56.3616C7.89107 55.5381 7.45349 54.4365 7.43335 53.283C7.4132 52.1294 7.812 51.0115 8.54786 50.1588C9.28373 49.3061 10.3008 48.7834 11.3902 48.6979C11.933 48.7068 12.4681 48.8356 12.961 49.0759C13.454 49.3163 13.8939 49.6628 14.2525 50.0934C14.611 50.5239 14.8804 51.0289 15.0433 51.5759C15.2061 52.1229 15.2588 52.6998 15.198 53.2696C15.2 53.4029 15.1946 53.5363 15.1818 53.669H8.70794C8.73357 54.455 9.04812 55.1995 9.58486 55.7446C10.1216 56.2897 10.8383 56.5925 11.5829 56.5888M13.965 52.7257C13.9776 52.3522 13.9202 51.9797 13.7962 51.6297C13.6721 51.2796 13.4839 50.9589 13.2422 50.6859C13.0005 50.4129 12.7101 50.1929 12.3878 50.0387C12.0654 49.8845 11.7174 49.799 11.3637 49.7872C10.6525 49.8316 9.98361 50.1592 9.49211 50.704C9.0006 51.2488 8.72299 51.9702 8.7153 52.7226L13.965 52.7257Z" fill="#1A1818"/>
<path d="M18.811 50.5377L18.4475 49.4873C19.3727 49.0111 20.389 48.7655 21.4182 48.7693C21.874 48.6978 22.3393 48.7364 22.779 48.8823C23.2187 49.0282 23.6212 49.2776 23.9564 49.6117C24.2916 49.9458 24.5506 50.3559 24.7139 50.811C24.8772 51.2662 24.9406 51.7545 24.8994 52.2393V57.5103H23.7223V56.2097C23.3771 56.687 22.9291 57.0705 22.4156 57.3286C21.9021 57.5867 21.3378 57.7118 20.7693 57.6937C20.3993 57.7385 20.0245 57.7032 19.6678 57.59C19.3111 57.4768 18.98 57.2879 18.6947 57.035C18.4094 56.7821 18.1759 56.4705 18.0084 56.1191C17.841 55.7678 17.7431 55.384 17.7207 54.9914C17.7207 53.1561 19.142 52.1942 21.2107 52.1942C22.0605 52.1859 22.9068 52.31 23.7223 52.5625V52.2595C23.7223 50.7056 22.8218 49.9068 21.2902 49.9068C20.4285 49.9173 19.5803 50.1341 18.8095 50.5408M18.9566 54.9447C18.9566 56.0465 19.9042 56.6789 21.0165 56.6789C21.3411 56.7175 21.6698 56.6876 21.9834 56.591C22.2971 56.4944 22.5894 56.333 22.8436 56.1162C23.0977 55.8994 23.3086 55.6314 23.464 55.3279C23.6194 55.0244 23.7162 54.6913 23.7488 54.348V53.5027C22.9691 53.2596 22.1605 53.1356 21.3475 53.1344C19.8159 53.1344 18.9625 53.8352 18.9625 54.937" fill="#1A1818"/>
<path d="M29.8193 45.3319H28.6025V57.5102H29.8193V45.3319Z" fill="#1A1818"/>
<path d="M43.0077 56.5935C43.4946 56.598 43.9767 56.4915 44.4211 56.2813C44.8655 56.071 45.2616 55.762 45.5826 55.3752L46.3403 56.0931C45.933 56.6152 45.4184 57.0322 44.8356 57.3125C44.2527 57.5928 43.617 57.729 42.9768 57.7108C41.8851 57.6681 40.8504 57.1855 40.085 56.3622C39.3197 55.5389 38.8819 54.4373 38.8616 53.2837C38.8412 52.1301 39.2399 51.0121 39.9757 50.1593C40.7114 49.3064 41.7285 48.7835 42.8179 48.6979C43.3608 48.7068 43.8958 48.8356 44.3888 49.0759C44.8817 49.3163 45.3216 49.6628 45.6802 50.0934C46.0388 50.5239 46.3081 51.0289 46.471 51.5759C46.6338 52.1229 46.6865 52.6998 46.6257 53.2696C46.6278 53.4029 46.6224 53.5363 46.6095 53.669H40.1357C40.1613 54.455 40.4758 55.1995 41.0126 55.7446C41.5493 56.2897 42.266 56.5925 43.0107 56.5888M45.3928 52.7257C45.4049 52.3521 45.3471 51.9796 45.2226 51.6296C45.0981 51.2796 44.9094 50.959 44.6673 50.6863C44.4252 50.4136 44.1344 50.194 43.8118 50.0402C43.4891 49.8865 43.1408 49.8015 42.787 49.7903C42.0758 49.8347 41.4069 50.1623 40.9154 50.7071C40.4239 51.2519 40.1463 51.9733 40.1386 52.7257H45.3928Z" fill="#1A1818"/>
<path d="M52.4671 57.678C51.238 57.6581 50.0491 57.2126 49.083 56.41L49.6995 55.4932C50.5047 56.1722 51.4961 56.5581 52.5259 56.5934C53.5058 56.5934 54.2165 56.0604 54.2165 55.2259V55.1933C54.2165 54.3246 53.2528 53.9905 52.1787 53.6735C50.8986 53.2912 49.4773 52.8235 49.4773 51.2384V51.2058C49.4927 50.8448 49.579 50.491 49.7307 50.1671C49.8824 49.8431 50.0961 49.5559 50.3584 49.3238C50.6207 49.0916 50.9257 48.9195 51.2543 48.8185C51.5828 48.7174 51.9277 48.6895 52.267 48.7366C53.3129 48.7559 54.3326 49.0854 55.2096 49.6876L54.6564 50.6557C53.941 50.144 53.1039 49.8549 52.2405 49.8212C51.2768 49.8212 50.6603 50.3543 50.6603 51.0722V51.1048C50.6603 51.9222 51.6711 52.2392 52.7613 52.5904C54.0252 52.9898 55.3847 53.5072 55.3847 55.0596V55.0922C55.3706 55.4697 55.2821 55.84 55.1249 56.1793C54.9676 56.5186 54.7451 56.8196 54.4715 57.0629C54.1979 57.3063 53.8792 57.4867 53.5358 57.5926C53.1925 57.6985 52.832 57.7276 52.4774 57.678" fill="#1A1818"/>
<path d="M60.1261 55.0566C60.1008 55.2527 60.119 55.4524 60.1794 55.6398C60.2398 55.8272 60.3406 55.9972 60.4739 56.1364C60.6072 56.2755 60.7694 56.38 60.9475 56.4415C61.1257 56.503 61.3149 56.5199 61.5003 56.4909C61.9122 56.4929 62.3185 56.39 62.6848 56.191V57.2927C62.2311 57.543 61.7252 57.6691 61.2134 57.6594C60.9016 57.6981 60.5856 57.6616 60.2891 57.5528C59.9925 57.444 59.7231 57.2657 59.5011 57.0313C59.2792 56.7968 59.1103 56.5123 59.0073 56.1991C58.9043 55.8859 58.8698 55.5521 58.9064 55.2228V50.0202H57.7705V48.8858H58.9064V46.283H60.1232V48.8858H62.7127V50.0202H60.1261V55.0566Z" fill="#1A1818"/>
<path d="M66.3476 50.5376L65.9842 49.4871C66.9093 49.011 67.9256 48.7653 68.9548 48.7692C69.4098 48.6997 69.8737 48.7399 70.3119 48.8868C70.75 49.0336 71.1511 49.2833 71.4848 49.6172C71.8186 49.951 72.0765 50.3603 72.2392 50.8144C72.4019 51.2685 72.4651 51.7556 72.4242 52.2392V57.5102H71.2545V56.2095C70.91 56.6872 70.4628 57.0715 69.9498 57.3303C69.4368 57.5892 68.8728 57.7153 68.3045 57.6982C67.9344 57.743 67.5596 57.7078 67.2029 57.5945C66.8462 57.4813 66.5151 57.2925 66.2298 57.0396C65.9445 56.7867 65.711 56.475 65.5436 56.1237C65.3761 55.7723 65.2782 55.3885 65.2559 54.9959C65.2559 53.1607 66.6772 52.1988 68.7459 52.1988C69.5956 52.1905 70.4419 52.3146 71.2574 52.567V52.2594C71.2574 50.7054 70.357 49.9067 68.8253 49.9067C67.9637 49.9172 67.1155 50.1339 66.3446 50.5407M66.4918 54.9446C66.4918 56.0464 67.4393 56.6788 68.5516 56.6788C68.8763 56.7173 69.205 56.6874 69.5186 56.5908C69.8322 56.4942 70.1246 56.3328 70.3787 56.116C70.6329 55.8992 70.8437 55.6313 70.9991 55.3278C71.1545 55.0243 71.2513 54.6912 71.2839 54.3479V53.5025C70.5042 53.2595 69.6956 53.1354 68.8827 53.1342C67.351 53.1342 66.4977 53.8351 66.4977 54.9368" fill="#1A1818"/>
<path d="M77.5929 55.0566C77.5676 55.2527 77.5858 55.4524 77.6462 55.6398C77.7066 55.8272 77.8074 55.9972 77.9407 56.1364C78.074 56.2755 78.2362 56.38 78.4143 56.4415C78.5925 56.503 78.7817 56.5199 78.9671 56.4909C79.379 56.4929 79.7853 56.39 80.1516 56.191V57.2927C79.6979 57.543 79.192 57.6691 78.6802 57.6594C78.3684 57.6981 78.0524 57.6616 77.7559 57.5528C77.4593 57.444 77.1899 57.2657 76.9679 57.0313C76.746 56.7968 76.5771 56.5123 76.4741 56.1991C76.3711 55.8859 76.3366 55.5521 76.3732 55.2228V50.0202H75.2373V48.8858H76.3732V46.283H77.59V48.8858H80.181V50.0202H77.5929V55.0566Z" fill="#1A1818"/>
<path d="M86.706 56.5935C87.1929 56.598 87.675 56.4915 88.1193 56.2813C88.5637 56.071 88.9599 55.762 89.2808 55.3752L90.0385 56.0931C89.6313 56.6152 89.1167 57.0322 88.5338 57.3125C87.951 57.5928 87.3153 57.729 86.6751 57.7108C85.5834 57.6681 84.5486 57.1855 83.7833 56.3622C83.018 55.5389 82.5802 54.4373 82.5598 53.2837C82.5395 52.1301 82.9381 51.0121 83.6739 50.1593C84.4097 49.3064 85.4267 48.7835 86.5162 48.6979C87.059 48.7068 87.5941 48.8356 88.087 49.0759C88.58 49.3163 89.0198 49.6628 89.3784 50.0934C89.737 50.5239 90.0064 51.0289 90.1692 51.5759C90.3321 52.1229 90.3848 52.6998 90.324 53.2696C90.326 53.4029 90.3206 53.5363 90.3078 53.669H83.8339C83.8595 54.455 84.1741 55.1995 84.7108 55.7446C85.2476 56.2897 85.9643 56.5925 86.7089 56.5888M89.091 52.7257C89.1032 52.3521 89.0454 51.9796 88.9209 51.6296C88.7964 51.2796 88.6076 50.959 88.3655 50.6863C88.1234 50.4136 87.8327 50.194 87.51 50.0402C87.1873 49.8865 86.8391 49.8015 86.4853 49.7903C85.774 49.8347 85.1052 50.1623 84.6137 50.7071C84.1222 51.2519 83.8446 51.9733 83.8369 52.7257H89.091Z" fill="#1A1818"/>
<path d="M100.429 57.5103H99.2119V48.8843H100.429V51.1375C100.681 50.4223 101.137 49.8073 101.734 49.3771C102.332 48.9469 103.04 48.7226 103.763 48.7351V50.1197H103.669C103.2 50.1234 102.738 50.2327 102.312 50.4402C101.887 50.6477 101.509 50.9487 101.202 51.323C100.896 51.6973 100.669 52.1364 100.536 52.6109C100.403 53.0854 100.367 53.5844 100.432 54.0745L100.429 57.5103Z" fill="#1A1818"/>
<path d="M109.874 56.5935C110.36 56.5974 110.841 56.4905 111.285 56.2803C111.728 56.0701 112.124 55.7614 112.444 55.3752L113.202 56.0931C112.795 56.6152 112.28 57.0322 111.697 57.3125C111.115 57.5928 110.479 57.729 109.839 57.7108C108.747 57.6681 107.712 57.1855 106.947 56.3622C106.182 55.5389 105.744 54.4373 105.723 53.2837C105.703 52.1301 106.102 51.0121 106.837 50.1593C107.573 49.3064 108.59 48.7835 109.68 48.6979C110.223 48.7068 110.758 48.8356 111.251 49.0759C111.744 49.3163 112.183 49.6628 112.542 50.0934C112.901 50.5239 113.17 51.0289 113.333 51.5759C113.496 52.1229 113.548 52.6998 113.488 53.2696C113.49 53.4029 113.484 53.5363 113.471 53.669H107C107.026 54.455 107.341 55.1995 107.877 55.7446C108.414 56.2897 109.131 56.5925 109.875 56.5888M112.259 52.7257C112.272 52.3514 112.214 51.9782 112.089 51.6276C111.965 51.277 111.776 50.9558 111.533 50.6827C111.29 50.4095 110.999 50.1898 110.676 50.0361C110.352 49.8824 110.003 49.7978 109.649 49.7872C108.937 49.8316 108.268 50.1597 107.776 50.7051C107.285 51.2506 107.007 51.9727 107 52.7257H112.259Z" fill="#1A1818"/>
<path d="M118.275 55.0566C118.249 55.2527 118.267 55.4524 118.328 55.6398C118.388 55.8272 118.489 55.9972 118.622 56.1364C118.756 56.2755 118.918 56.38 119.096 56.4415C119.274 56.503 119.463 56.5199 119.649 56.4909C120.061 56.4929 120.467 56.39 120.833 56.191V57.2927C120.38 57.543 119.874 57.6691 119.362 57.6594C119.05 57.6981 118.734 57.6616 118.437 57.5528C118.141 57.444 117.872 57.2657 117.65 57.0313C117.428 56.7968 117.259 56.5123 117.156 56.1991C117.053 55.8859 117.018 55.5521 117.055 55.2228V50.0202H115.919V48.8858H117.055V46.283H118.272V48.8858H120.863V50.0202H118.272L118.275 55.0566Z" fill="#1A1818"/>
<path d="M129.821 48.8857H131.021V57.5117H129.821V56.0091C129.544 56.5323 129.138 56.9658 128.645 57.2627C128.152 57.5595 127.592 57.7085 127.025 57.6935C126.596 57.7179 126.167 57.644 125.768 57.477C125.368 57.3099 125.007 57.0537 124.71 56.7258C124.413 56.3979 124.187 56.0061 124.046 55.5771C123.906 55.1482 123.855 54.6923 123.897 54.2407V48.8857H125.112V53.9237C125.07 54.2576 125.098 54.5972 125.193 54.9186C125.289 55.24 125.45 55.5353 125.666 55.7836C125.881 56.0319 126.146 56.2271 126.441 56.3555C126.736 56.4839 127.054 56.5423 127.372 56.5265C127.705 56.5325 128.035 56.4658 128.342 56.3306C128.649 56.1954 128.926 55.9946 129.156 55.7408C129.386 55.487 129.564 55.1857 129.678 54.8559C129.792 54.5261 129.841 54.1748 129.821 53.8242V48.8857Z" fill="#1A1818"/>
<path d="M135.986 57.5103H134.769V48.8843H135.986V51.1375C136.238 50.4225 136.694 49.8077 137.291 49.3775C137.888 48.9474 138.596 48.7229 139.318 48.7351V50.1197H139.223C138.754 50.1234 138.292 50.2326 137.867 50.4402C137.441 50.6477 137.063 50.9486 136.756 51.323C136.45 51.6973 136.223 52.1364 136.09 52.6109C135.957 53.0854 135.922 53.5843 135.986 54.0745V57.5103Z" fill="#1A1818"/>
<path d="M143.386 57.5102H142.165V48.8842H143.382V50.3869C143.656 49.8619 144.062 49.427 144.556 49.1299C145.049 48.8327 145.61 48.6848 146.177 48.7024C146.606 48.6781 147.035 48.752 147.435 48.919C147.835 49.086 148.195 49.3423 148.492 49.6702C148.789 49.9981 149.016 50.3899 149.156 50.8188C149.296 51.2477 149.347 51.7036 149.305 52.1553V57.5102H148.089V52.4723C148.131 52.1385 148.104 51.7989 148.008 51.4775C147.913 51.1561 147.752 50.8607 147.536 50.6124C147.321 50.3641 147.056 50.1688 146.762 50.0404C146.467 49.912 146.149 49.8537 145.83 49.8694C145.498 49.8627 145.168 49.9289 144.861 50.0638C144.554 50.1987 144.277 50.3995 144.047 50.6533C143.817 50.9072 143.64 51.2086 143.526 51.5385C143.412 51.8685 143.365 52.2198 143.386 52.5702V57.5102Z" fill="#1A1818"/>
<path d="M155.61 57.6782C154.381 57.6583 153.192 57.2128 152.226 56.4102L152.843 55.4934C153.648 56.1724 154.639 56.5583 155.669 56.5936C156.649 56.5936 157.36 56.0606 157.36 55.2261V55.1934C157.36 54.3248 156.396 53.9907 155.322 53.6737C154.042 53.2914 152.62 52.8237 152.62 51.2386V51.206C152.636 50.846 152.722 50.4933 152.873 50.1701C153.024 49.847 153.237 49.5604 153.498 49.3284C153.759 49.0964 154.063 48.9241 154.39 48.8223C154.718 48.7204 155.061 48.6913 155.4 48.7368C156.446 48.7561 157.465 49.0856 158.342 49.6878L157.789 50.6559C157.074 50.1442 156.237 49.855 155.373 49.8214C154.41 49.8214 153.793 50.3544 153.793 51.0724V51.105C153.793 51.9224 154.804 52.2394 155.894 52.5906C157.158 52.9899 158.517 53.5074 158.517 55.0598V55.0924C158.503 55.4699 158.415 55.8402 158.258 56.1795C158.1 56.5188 157.878 56.8198 157.604 57.0631C157.331 57.3065 157.012 57.4869 156.669 57.5928C156.325 57.6987 155.965 57.7278 155.61 57.6782Z" fill="#1A1818"/>
<path d="M168.623 48.8857H169.84L169.492 50.2843C169.802 49.8196 170.207 49.4355 170.677 49.1608C171.148 48.8862 171.672 48.7283 172.209 48.6992C172.753 48.6772 173.286 48.862 173.712 49.2202C174.138 49.5783 174.429 50.086 174.53 50.651C174.87 50.0522 175.352 49.5572 175.928 49.215C176.504 48.8727 177.155 48.695 177.816 48.6992C178.151 48.6818 178.486 48.7391 178.798 48.8675C179.111 48.9959 179.395 49.1924 179.631 49.4443C179.867 49.6962 180.05 49.9977 180.168 50.3294C180.286 50.661 180.337 51.0152 180.317 51.3689C180.286 51.8206 180.211 52.2678 180.095 52.7038L178.878 57.5086H177.663L178.91 52.6198C178.978 52.3019 179.015 51.9776 179.021 51.6517C179.042 51.411 179.014 51.1683 178.936 50.9406C178.859 50.713 178.736 50.506 178.575 50.3342C178.414 50.1624 178.219 50.0301 178.004 49.9466C177.789 49.863 177.56 49.8303 177.332 49.8507C176.644 49.9441 176.001 50.2633 175.493 50.7631C174.986 51.263 174.64 51.9184 174.504 52.6369L173.287 57.5086H172.072L173.303 52.6198C173.384 52.3041 173.427 51.9788 173.43 51.6517C173.449 51.4099 173.418 51.1665 173.34 50.9385C173.261 50.7105 173.136 50.5035 172.973 50.332C172.81 50.1604 172.614 50.0285 172.398 49.9453C172.182 49.8622 171.952 49.8299 171.723 49.8507C171.035 49.9442 170.392 50.2634 169.885 50.7633C169.378 51.2632 169.032 51.9185 168.897 52.6369L167.664 57.5086H166.442L168.623 48.8857Z" fill="#1A1818"/>
<path d="M182.489 55.3082C182.489 53.3735 184.022 52.1879 186.123 52.1879C187.107 52.2046 188.084 52.3614 189.029 52.6541L189.076 52.4536C189.142 52.1924 189.179 51.9237 189.186 51.6533C189.186 50.536 188.459 49.902 186.979 49.902C186.192 49.9084 185.411 50.0609 184.674 50.3527L184.468 49.2851C185.33 48.9368 186.246 48.7613 187.169 48.7676C189.229 48.7676 190.377 49.7684 190.377 51.4358C190.371 51.8372 190.312 52.2357 190.202 52.6199L188.97 57.5086H187.793L188.14 56.1582C187.772 56.6368 187.307 57.0228 186.78 57.2881C186.252 57.5534 185.676 57.6913 185.092 57.692C184.771 57.7278 184.446 57.6934 184.139 57.5909C183.831 57.4883 183.547 57.3198 183.304 57.0959C183.06 56.8721 182.864 56.5976 182.725 56.2897C182.587 55.9819 182.511 55.6472 182.501 55.3066M188.68 54.1225L188.838 53.5212C187.976 53.2662 187.084 53.1371 186.189 53.1373C184.735 53.1373 183.741 53.9718 183.741 55.1575C183.741 56.0759 184.421 56.6928 185.479 56.6928C186.197 56.6702 186.89 56.4102 187.461 55.9494C188.031 55.4885 188.451 54.8501 188.66 54.1241" fill="#1A1818"/>
<path d="M196.135 53.0364L194.075 48.8827H195.419L196.966 52.1693L200.078 48.8827H201.61L197.456 53.153L199.588 57.504H198.246L196.619 54.0014L193.27 57.504H191.749L196.135 53.0364Z" fill="#1A1818"/>
<path d="M204.79 48.8858H206.005L203.814 57.5118H202.598L204.79 48.8858ZM205.548 45.5836H206.938L206.575 47.0008H205.184L205.548 45.5836Z" fill="#1A1818"/>
<path d="M209.847 48.8857H211.064L210.717 50.2843C211.026 49.8196 211.431 49.4355 211.901 49.1608C212.372 48.8862 212.896 48.7283 213.433 48.6992C213.977 48.6772 214.51 48.862 214.936 49.2202C215.362 49.5783 215.653 50.086 215.754 50.651C216.094 50.0522 216.576 49.5572 217.152 49.215C217.728 48.8727 218.379 48.695 219.04 48.6992C219.375 48.6818 219.71 48.7391 220.023 48.8675C220.335 48.9959 220.619 49.1924 220.855 49.4443C221.091 49.6962 221.274 49.9977 221.392 50.3294C221.51 50.661 221.561 51.0152 221.541 51.3689C221.51 51.8206 221.435 52.2678 221.319 52.7038L220.102 57.5086H218.887L220.135 52.6198C220.202 52.3019 220.239 51.9776 220.245 51.6517C220.266 51.411 220.238 51.1683 220.161 50.9406C220.084 50.713 219.96 50.506 219.799 50.3342C219.638 50.1624 219.443 50.0301 219.228 49.9466C219.013 49.863 218.784 49.8303 218.556 49.8507C217.868 49.9441 217.225 50.2633 216.717 50.7631C216.21 51.263 215.864 51.9184 215.728 52.6369L214.511 57.5086H213.296L214.527 52.6198C214.608 52.304 214.65 51.9787 214.654 51.6517C214.673 51.4099 214.643 51.1665 214.564 50.9385C214.485 50.7105 214.36 50.5035 214.197 50.332C214.035 50.1604 213.838 50.0285 213.622 49.9453C213.407 49.8622 213.176 49.8299 212.947 49.8507C212.259 49.9442 211.616 50.2634 211.109 50.7633C210.602 51.2632 210.256 51.9185 210.121 52.6369L208.888 57.5086H207.672L209.847 48.8857Z" fill="#1A1818"/>
<path d="M225.982 48.8858H227.198L225.001 57.5118H223.784L225.982 48.8858ZM226.74 45.5836H228.13L227.767 47.0008H226.377L226.74 45.5836Z" fill="#1A1818"/>
<path d="M228.493 56.1926L229.283 55.3581C229.654 55.7578 230.096 56.0757 230.584 56.2933C231.072 56.511 231.596 56.6241 232.125 56.6261C233.057 56.6261 233.926 56.0589 233.926 55.1918C233.926 54.6246 233.563 54.2082 232.379 53.7233C230.907 53.1235 230.071 52.5563 230.071 51.3551C230.071 49.8866 231.272 48.7025 233.161 48.7025C234.265 48.7236 235.329 49.1413 236.177 49.8866L235.467 50.7708C234.792 50.1565 233.94 49.8035 233.049 49.7701C231.897 49.7701 231.284 50.4212 231.284 51.1376C231.284 51.7048 231.616 52.0699 232.911 52.606C234.382 53.2401 235.139 53.857 235.139 54.9758C235.108 55.3734 235.001 55.7603 234.826 56.1136C234.651 56.467 234.41 56.7796 234.119 57.0331C233.827 57.2865 233.49 57.4755 233.128 57.589C232.766 57.7025 232.386 57.7381 232.011 57.6937C230.695 57.7018 229.43 57.1626 228.488 56.1926" fill="#1A1818"/>
<path d="M239.407 53.9906C239.383 54.3388 239.431 54.6884 239.546 55.0155C239.662 55.3426 239.843 55.6396 240.076 55.8865C240.31 56.1334 240.591 56.3243 240.901 56.4462C241.211 56.5682 241.542 56.6184 241.871 56.5935C242.8 56.5982 243.696 56.235 244.383 55.5756L245.014 56.4272C244.136 57.2654 242.992 57.7237 241.808 57.7108C241.336 57.749 240.861 57.6814 240.416 57.5125C239.97 57.3436 239.563 57.0772 239.221 56.7307C238.88 56.3842 238.611 55.9655 238.434 55.5018C238.256 55.0382 238.173 54.5402 238.19 54.0403C238.182 52.6759 238.672 51.3605 239.557 50.3668C240.442 49.373 241.656 48.7771 242.946 48.7025C243.365 48.6729 243.786 48.7379 244.179 48.893C244.573 49.0481 244.931 49.2899 245.23 49.6023C245.529 49.9147 245.761 50.2905 245.912 50.705C246.063 51.1194 246.128 51.563 246.104 52.0062C246.101 52.5646 246.005 53.118 245.819 53.641H239.42C239.408 53.757 239.403 53.8738 239.405 53.9906M244.839 52.6729C244.898 52.4562 244.924 52.2314 244.917 52.0062C244.942 51.714 244.908 51.4194 244.815 51.1427C244.723 50.866 244.575 50.6136 244.381 50.4029C244.188 50.1922 243.954 50.0281 243.695 49.9218C243.436 49.8155 243.158 49.7696 242.881 49.7872C242.111 49.8272 241.374 50.1303 240.782 50.6507C240.189 51.1712 239.773 51.8808 239.595 52.6729H244.839Z" fill="#1A1818"/>
<path d="M248.534 54.0573C248.482 52.7093 248.933 51.3936 249.789 50.3925C250.646 49.3914 251.839 48.7846 253.114 48.7023C253.773 48.6723 254.424 48.8626 254.974 49.2463C255.525 49.63 255.946 50.1874 256.179 50.839L257.569 45.3334H258.785L255.705 57.5117H254.488L254.852 56.0432C254.487 56.5438 254.021 56.9529 253.489 57.2414C252.957 57.5299 252.37 57.6907 251.772 57.7122C251.327 57.7151 250.886 57.6208 250.478 57.435C250.069 57.2493 249.701 56.9761 249.397 56.6328C249.093 56.2895 248.859 55.8835 248.711 55.4402C248.563 54.9969 248.503 54.5261 248.535 54.0573M255.754 52.5033C255.765 52.1496 255.707 51.7972 255.584 51.468C255.461 51.1388 255.275 50.8398 255.038 50.5896C254.801 50.3393 254.518 50.1431 254.206 50.013C253.895 49.883 253.561 49.8219 253.226 49.8336C252.261 49.9063 251.361 50.3778 250.723 51.146C250.085 51.9142 249.759 52.9172 249.816 53.9376C249.784 54.2753 249.82 54.6162 249.922 54.938C250.024 55.2597 250.19 55.555 250.407 55.8045C250.625 56.054 250.89 56.252 251.186 56.3856C251.481 56.5191 251.8 56.5851 252.121 56.5793C253.095 56.4914 254.004 56.0275 254.674 55.2764C255.344 54.5253 255.728 53.5397 255.754 52.508" fill="#1A1818"/>
<path d="M15.2066 1.00537V9.30037C15.2066 11.101 14.5293 12.8278 13.3238 14.1011C12.1183 15.3743 10.4832 16.0896 8.77834 16.0896H0.916992L15.2066 1.00537Z" fill="white"/>
<path d="M33.5953 16.0896H25.7413C24.8967 16.0902 24.0603 15.915 23.2799 15.5741C22.4995 15.2332 21.7903 14.7332 21.1929 14.1027C20.5956 13.4722 20.1217 12.7236 19.7983 11.8996C19.475 11.0756 19.3086 10.1923 19.3086 9.30037V1.00537L33.5953 16.0896Z" fill="white"/>
<path d="M19.3086 35.5126V27.2176C19.3086 25.4169 19.9859 23.6901 21.1914 22.4169C22.3969 21.1436 24.032 20.4283 25.7369 20.4283H33.5953V35.5126H19.3086Z" fill="white"/>
<path d="M15.2066 35.5126V27.2176C15.2066 25.4169 14.5293 23.6901 13.3238 22.4169C12.1183 21.1436 10.4832 20.4283 8.77834 20.4283H0.916992V35.5126H15.2066Z" fill="white"/>
<path d="M48.4839 0.985229H44.376V35.4907H48.4839V0.985229Z" fill="#1A1818"/>
<path d="M63.3721 10.845V35.4923H59.2656V0H59.685L81.0193 25.7816V0.978992H85.1214V36.4775H84.7477L63.3721 10.845Z" fill="#1A1818"/>
<path d="M92.3584 0.979004H96.6518L106.873 28.0489L117.094 0.979004H121.388L107.06 36.4775H106.686L92.3584 0.979004Z" fill="#1A1818"/>
<path d="M128.629 0.979004H149.304V4.82348H132.734V16.9987H147.436V20.8432H132.734V31.6385H149.771V35.4923H128.629V0.979004Z" fill="#1A1818"/>
<path d="M156.305 29.4273L159.152 27.1104C160.111 28.7942 161.476 30.1789 163.108 31.123C164.74 32.0671 166.58 32.5367 168.44 32.484C173.149 32.484 176.047 30.167 176.047 26.7157C176.047 22.8215 172.313 21.1463 168.346 19.4214C163.772 17.3516 158.731 15.1823 158.731 9.06901C158.731 3.79489 162.556 0.295391 168.58 0.295391C170.482 0.174847 172.381 0.563436 174.103 1.42512C175.824 2.2868 177.312 3.59367 178.428 5.22453L175.485 7.40006C174.707 6.26356 173.671 5.35186 172.472 4.74878C171.273 4.1457 169.95 3.87059 168.624 3.94873C164.752 3.94873 162.79 5.96887 162.79 8.68207C162.79 12.2297 166.245 13.8101 170.212 15.5334C174.92 17.653 180.152 19.9203 180.152 26.279C180.152 32.3923 175.297 36.1373 168.529 36.1373C166.112 36.2583 163.707 35.7018 161.56 34.5245C159.412 33.3471 157.598 31.5907 156.3 29.4336" fill="#1A1818"/>
<path d="M195.371 4.83125H184.916V0.979004H209.929V4.82348H199.482V35.483H195.374L195.371 4.83125Z" fill="#1A1818"/>
<path d="M224.59 0H224.963L239.759 35.4907H235.466L232.757 28.5399H216.796L214.089 35.4907H209.795L224.59 0ZM231.358 24.9425L224.777 8.18156L218.242 24.9425H231.358Z" fill="#1A1818"/>
<path d="M251.522 21.8859L239.715 0.979004H244.241L253.575 17.9357L262.91 0.979004H267.438L255.629 21.8797V35.4845H251.522V21.8859Z" fill="#1A1818"/>
</svg>
